# xmcd
#
# Track frame offsets:
#	150
#	20133
#	34115
#	49328
#	68210
#	84069
#	101793
#	121563
#	148848
#	171972
#	196224
#	212861
#	229159
#
# Disc length: 3260 seconds
#
# Revision: 0
# Processed by: cddbd v1.5.2PL0 Copyright (c) Steve Scherf et al.
# Submitted via: audiograbber 1.83.01
#
DISCID=b60cba0d
DTITLE=Blind Passengers - Timemachine CD 2
DYEAR=2005
DGENRE=Synthpop
TTITLE0=Forgotten Years (2005)
TTITLE1=The Glory Of Success (1998)
TTITLE2=No More Revolution (2005)
TTITLE3=Just A Fuck (2005)
TTITLE4=Born To Crash (2002)
TTITLE5=Golden Years (2005)
TTITLE6=Grey Sunday (2000 Club-Mix)
TTITLE7=Bring Me Down (1999)
TTITLE8=Gunman (1999 New Cut)
TTITLE9=Hall Of Pain (2001)
TTITLE10=Why (2001)
TTITLE11=Get On (1999)
TTITLE12=Sarajevo (1994)
EXTD=
EXTT0=
EXTT1=
EXTT2=
EXTT3=
EXTT4=
EXTT5=
EXTT6=
EXTT7=
EXTT8=
EXTT9=
EXTT10=
EXTT11=
EXTT12=
PLAYORDER=
